<svg xmlns="http://www.w3.org/2000/svg" viewBox="0 0 953.75 282.25"><defs><style>.cls-1{isolation:isolate;}.cls-2{fill:#fff;}.cls-3{fill:#db0720;}.cls-4,.cls-6{mix-blend-mode:multiply;}.cls-4{opacity:0.25;}.cls-5{fill:#1d1d1b;}.cls-6{opacity:0.01;}.cls-7{fill:none;}</style></defs><g class="cls-1"><g id="Int-logo"><path class="cls-2" d="M769,207.43a10,10,0,0,1-4-.84,191.51,191.51,0,0,1-18.49-9.51c-6.31-3.75-11.19-7.34-11.39-7.49-12.35-8.85-22-18.87-28.54-29.72a83.62,83.62,0,0,1-7.44-16.13c-7.6-22.31,3.35-46.45,25-54.85a42,42,0,0,1,36.32,3.17l.2.12c.34.21,1.8,1.14,3.71,2.57,9.24-13.14,24.21-21.4,40-21.4A45.6,45.6,0,0,1,821,76.45a47.34,47.34,0,0,1,26.57,25.86,50,50,0,0,1,.6,37.94s-1.2,3.1-1.62,4.09a91.5,91.5,0,0,1-8.65,15.86C824.73,178.78,803,194.32,773,206.54a9.77,9.77,0,0,1-4,.89Z"/><path class="cls-3" d="M740.2,183.59l1.88-10.18,3.32-17.09H713.89C718.48,163.91,726.36,173.66,740.2,183.59Zm77.68-98.34c-20.06-7.77-42.88,3-51.3,24l-2.34,12.07-4,20.6h78.33c.69-1.62,1.2-3.11,1.56-3.93C848.46,116.59,838.05,93,817.88,85.25Zm-61.73,15a33.12,33.12,0,0,0-28.92-2.58c-17.07,6.63-26.14,26.15-20,44.27h40.89l5.21-27.18ZM752.94,180l-2.07,10.61a183.94,183.94,0,0,0,17.47,9,1.55,1.55,0,0,0,.65.17,1.43,1.43,0,0,0,.57-.16c35-14.24,52.28-30.65,61.21-43.28H757.53Z"/><g class="cls-4"><path class="cls-5" d="M733.66,116.53a25,25,0,0,1,19.7-1.75l2.79-14.51a33.12,33.12,0,0,0-28.92-2.58c-17.07,6.63-26.14,26.15-20,44.27h13.21A26.18,26.18,0,0,1,733.66,116.53Z"/><path class="cls-5" d="M725.76,156.32H713.89c4.59,7.59,12.47,17.34,26.31,27.27l1.88-10.18C733,166.88,728.23,160.55,725.76,156.32Z"/><path class="cls-5" d="M775.4,188.53a1.22,1.22,0,0,1-.43.15.83.83,0,0,1-.44-.08A124.31,124.31,0,0,1,752.94,180l-2.07,10.61a183.94,183.94,0,0,0,17.47,9,1.55,1.55,0,0,0,.65.17,1.43,1.43,0,0,0,.57-.16c35-14.24,52.28-30.65,61.21-43.28H813.1C806.68,165.76,795.45,177.08,775.4,188.53Z"/><path class="cls-5" d="M817.88,85.25c-20.06-7.77-42.88,3-51.3,24l-2.34,12.07h0c4.21-16.59,20.23-26.88,36-23s26,20.36,21.87,37a55.39,55.39,0,0,1-1.71,6.67h18.26c.69-1.62,1.2-3.11,1.56-3.93C848.46,116.59,838.05,93,817.88,85.25Z"/></g><path class="cls-2" d="M169.47,115.61l-24.4,56H134.83l-24.48-56h11.28l18.64,43.2,18.8-43.2Z"/><path class="cls-2" d="M173.47,115.85a6.09,6.09,0,0,1,6.4-6c3.6,0,6.4,2.48,6.4,5.76a6.41,6.41,0,0,1-12.8.24Zm1.36,13h10v42.72h-10Z"/><path class="cls-2" d="M201,170.81a26.15,26.15,0,0,1-7.92-3.44l3.84-7.6A28.66,28.66,0,0,0,211.79,164c6,0,9-1.6,9-4.72,0-3-2.88-3.76-9.6-4.8a57.15,57.15,0,0,1-8.56-1.84c-4.48-1.36-8.24-4.72-8.24-10.88a11.39,11.39,0,0,1,5.12-9.76q5-3.6,13.68-3.6c5.84,0,12.24,1.44,16,3.68l-3.84,7.6a23.3,23.3,0,0,0-12.24-3.2c-5.84,0-9,1.92-9,4.8,0,3.2,3.2,4.08,10,5.28a56.74,56.74,0,0,1,8.4,1.84c4.4,1.36,8,4.48,8,10.56a11.2,11.2,0,0,1-5.2,9.6q-5.16,3.6-14.16,3.6A39.37,39.37,0,0,1,201,170.81Z"/><path class="cls-2" d="M237.79,115.85a6.09,6.09,0,0,1,6.4-6c3.6,0,6.4,2.48,6.4,5.76a6.41,6.41,0,0,1-12.8.24Zm1.36,13h10v42.72h-10Z"/><path class="cls-2" d="M288,169.29c-2.32,1.92-5.84,2.88-9.6,2.88-9.36,0-14.72-5-14.72-14.4V137.21h-7v-8h7v-9.76h10v9.76h11.44v8H273.63v20.32c0,4.16,2.08,6.4,5.92,6.4a8.68,8.68,0,0,0,5.6-1.76Z"/><path class="cls-2" d="M297.15,115.61h24.48a35,35,0,0,1,15.92,3.44c9.28,4.64,14.64,13.44,14.64,24.56a27.76,27.76,0,0,1-3.84,14.64c-5.12,8.48-14.8,13.36-26.72,13.36H297.15Zm24,47.2c12.48,0,20.56-7.6,20.56-19.2s-8.08-19.2-20.56-19.2h-13.6v38.4Z"/><path class="cls-2" d="M402.27,153.45H368.75c1.2,6.32,6.48,10.24,13.84,10.24a15.43,15.43,0,0,0,11.6-4.64l5.36,6.16c-3.84,4.56-9.84,7-17.2,7-14.16,0-23.6-9.2-23.6-21.92A22.33,22.33,0,0,1,361.63,139c3.76-6.64,10.8-10.56,19.2-10.56,12.56,0,21.6,8.88,21.6,22.08C402.43,151.21,402.35,152.17,402.27,153.45Zm-33.6-6.64h24.24a12.26,12.26,0,0,0-24.24,0Z"/><path class="cls-2" d="M454.11,147.13v24.48h-10v-23.2c0-7.44-3.68-11.28-10.16-11.28-7.36,0-11.92,4.56-11.92,12.88v21.6H412V128.89h9.52v5.52c3.28-3.92,8.4-6,14.72-6C447.07,128.41,454.11,134.73,454.11,147.13Z"/><path class="cls-2" d="M538.27,147.13v24.48h-10v-23.2c0-7.44-3.44-11.28-9.6-11.28-6.72,0-11.12,4.56-11.12,12.8v21.68h-10v-23.2c0-7.44-3.44-11.28-9.6-11.28-6.8,0-11.12,4.48-11.12,12.8v21.68h-10V128.89h9.52v5.44c3.2-3.84,8.16-5.92,14-5.92,6.4,0,11.52,2.4,14.4,7.12,3.52-4.48,9.28-7.12,16-7.12C531.55,128.41,538.27,134.65,538.27,147.13Z"/><path class="cls-2" d="M586.83,146.57v25h-9.44v-5.2c-2.48,3.76-7,5.76-13.44,5.76-9.68,0-15.92-5.36-15.92-12.8,0-7.68,5.52-12.72,17.76-12.72h11V146c0-6-3.6-9.28-10.64-9.28a21.15,21.15,0,0,0-13,4.24l-3.92-7.28c4.48-3.44,11-5.28,18.08-5.28C580,128.41,586.83,134.41,586.83,146.57Zm-10,11.68v-5H566.51c-5.76,0-8.64,1.92-8.64,5.68,0,3.6,3,5.92,8.16,5.92S575.23,162.49,576.83,158.25Z"/><path class="cls-2" d="M609.15,135.13c2.88-4.48,7.92-6.72,15.2-6.72v9.52a12.69,12.69,0,0,0-2.32-.24c-7.76,0-12.4,4.64-12.4,13.2v20.72h-10V128.89h9.52Z"/><path class="cls-2" d="M650.27,153.29l-7.44,7v11.28h-10V112.25h10v35.84l20.72-19.2h12l-17.84,17.92,19.52,24.8H665.07Z"/><g class="cls-6"><rect class="cls-7" width="953.75" height="282.25"/></g></g></g></svg>